<svg width="14" height="18" viewBox="0 0 14 18" fill="none" xmlns="http://www.w3.org/2000/svg">
<path d="M13.8626 10.675C13.5501 9.22085 11.911 7.75335 10.521 7.23751L10.0676 3.11418L11.3135 1.24585C11.4443 1.04918 11.4568 0.797514 11.3443 0.590014C11.2326 0.381681 11.0176 0.254181 10.7818 0.254181H3.16514C2.92847 0.254181 2.71347 0.382514 2.6018 0.590014C2.49014 0.798347 2.5018 1.05085 2.63347 1.24668L3.8818 3.11918L3.47847 7.23835C2.08847 7.75501 0.450969 9.22168 0.141802 10.6683C0.108469 10.8017 0.128469 11.005 0.251802 11.1633C0.337635 11.2733 0.505135 11.405 0.818469 11.405H4.20014L6.62014 16.9983C6.68514 17.1517 6.8368 17.25 7.0018 17.25C7.1668 17.25 7.31847 17.1517 7.38514 16.9983L9.8043 11.4042H13.1851C13.4985 11.4042 13.6651 11.2742 13.7518 11.1658C13.8735 11.0092 13.8951 10.8042 13.8643 10.6742L13.8626 10.675Z" fill="#536471"/>
</svg>
