<svg width="22" height="22" viewBox="0 0 22 22" fill="none" xmlns="http://www.w3.org/2000/svg">
<path d="M-37.9 17C-38 16.9 -38 16.9 -38 16.8C-37.9 16.8 -37.9 16.9 -37.9 17ZM18 1.19998H16.7V0.899976C16.7 0.499976 16.4 0.0999756 15.9 0.0999756C15.5 0.0999756 15.1 0.399976 15.1 0.899976V1.19998H7.7V0.899976C7.7 0.499976 7.4 0.0999756 6.9 0.0999756C6.5 0.0999756 6.1 0.399976 6.1 0.899976V1.19998H4.8C3.4 1.19998 2.3 2.29998 2.3 3.69998V16.8C2.3 18.2 3.4 19.3 4.8 19.3H7.7C8.1 19.3 8.5 19 8.5 18.5C8.5 18.1 8.2 17.7 7.7 17.7H4.8C4.2 17.7 3.8 17.2 3.8 16.7V6.89998C3.8 6.59998 4.2 6.19998 4.8 6.19998H18C18.6 6.19998 19 6.59998 19 6.89998V8.69998C19 9.09997 19.3 9.49998 19.8 9.49998C20.2 9.49998 20.6 9.19998 20.6 8.69998V3.69998C20.5 2.29998 19.4 1.19998 18 1.19998ZM19 4.89998C18.7 4.79998 18.3 4.69998 18 4.69998H4.8C4.4 4.69998 4.1 4.79998 3.8 4.89998V3.69998C3.8 3.09998 4.3 2.69998 4.8 2.69998H6.1V3.19998C6.1 3.59998 6.4 3.99998 6.9 3.99998C7.3 3.99998 7.7 3.69998 7.7 3.19998V2.69998H15.2V3.19998C15.2 3.59998 15.5 3.99998 16 3.99998C16.4 3.99998 16.8 3.69998 16.8 3.19998V2.69998H18C18.6 2.69998 19 3.19998 19 3.69998V4.89998Z" fill="#1D9BF0"/>
<path d="M15.5 9.39996C12.1 9.39996 9.3 12.2 9.3 15.6C9.3 19 12.1 21.8 15.5 21.8C18.9 21.8 21.7 19 21.7 15.6C21.7 12.2 18.9 9.39996 15.5 9.39996ZM15.5 20.4C12.9 20.4 10.8 18.3 10.8 15.7C10.8 13.1 12.9 11 15.5 11C18.1 11 20.2 13.1 20.2 15.7C20.2 18.2 18.1 20.4 15.5 20.4Z" fill="#1D9BF0"/>
<path d="M18.9 17.7C18.8 17.9 18.5 18.1 18.3 18.1C18.2 18.1 18 18.1 17.9 18L14.8 16V13C14.8 12.6 15.1 12.2 15.6 12.2C16 12.2 16.4 12.5 16.4 13V15.2L18.8 16.7C19 16.9 19.1 17.3 18.9 17.7Z" fill="#1D9BF0"/>
</svg>
