<svg width="43" height="24" viewBox="0 0 43 24" fill="none" xmlns="http://www.w3.org/2000/svg">
<path d="M12.0002 21.638H11.9862C9.4032 21.59 1.9502 14.856 1.9502 8.478C1.9502 5.414 4.4752 2.724 7.3532 2.724C9.6432 2.724 11.1832 4.304 11.9992 5.454C12.8132 4.306 14.3532 2.724 16.6442 2.724C19.5242 2.724 22.0482 5.414 22.0482 8.479C22.0482 14.855 14.5942 21.589 12.0112 21.636H12.0002V21.638Z" fill="#EF1C5C"/>
<path d="M35.2969 18.2891V16.7188C35.901 17.0729 36.5417 17.25 37.2188 17.25C38.2031 17.25 38.9688 16.8932 39.5156 16.1797C40.0625 15.4609 40.3359 14.4427 40.3359 13.125C40.3255 13.1302 40.3151 13.1302 40.3047 13.125C39.8411 13.9896 39.0339 14.4219 37.8828 14.4219C36.9505 14.4219 36.1823 14.0938 35.5781 13.4375C34.9792 12.776 34.6797 11.9271 34.6797 10.8906C34.6797 9.78646 35.0339 8.88021 35.7422 8.17188C36.4505 7.46354 37.3542 7.10938 38.4531 7.10938C39.6094 7.10938 40.5104 7.54688 41.1562 8.42188C41.8073 9.29167 42.1328 10.5625 42.1328 12.2344C42.1328 14.2969 41.7109 15.888 40.8672 17.0078C40.0234 18.1276 38.8516 18.6875 37.3516 18.6875C36.5599 18.6875 35.875 18.5547 35.2969 18.2891ZM38.3281 8.55469C37.8021 8.55469 37.362 8.76042 37.0078 9.17188C36.6536 9.58333 36.4766 10.1042 36.4766 10.7344C36.4766 11.4323 36.6484 11.9792 36.9922 12.375C37.3411 12.7708 37.8125 12.9688 38.4062 12.9688C38.9219 12.9688 39.3568 12.7891 39.7109 12.4297C40.0703 12.0651 40.25 11.6198 40.25 11.0938C40.25 10.349 40.0703 9.73958 39.7109 9.26562C39.3568 8.79167 38.8958 8.55469 38.3281 8.55469Z" fill="#EF1C5C"/>
</svg>
